<?xml version="1.0" encoding="UTF-8" standalone="no" ?>
<!DOCTYPE svg PUBLIC "-//W3C//DTD SVG 1.1//EN" "http://www.w3.org/Graphics/SVG/1.1/DTD/svg11.dtd">
<svg xmlns="http://www.w3.org/2000/svg" xmlns:xlink="http://www.w3.org/1999/xlink" version="1.1" width="640" height="480" viewBox="0 0 640 480" xml:space="preserve">
<desc>Created with Fabric.js 3.6.3</desc>
<defs>
</defs>
<g transform="matrix(0.76 0 0 0.76 424.56 265.56)"  >
<g style=""   >
		<g transform="matrix(1 0 0 1 -2.54 -211)"  >
<path style="stroke: none; stroke-width: 1; stroke-dasharray: none; stroke-linecap: butt; stroke-dashoffset: 0; stroke-linejoin: miter; stroke-miterlimit: 4; fill: rgb(4,48,62); fill-rule: nonzero; opacity: 1;"  transform=" translate(-252.5, -45)" d="m 245 0 h 15 v 90 h -15 z" stroke-linecap="round" />
</g>
		<g transform="matrix(1 0 0 1 -17.6 -211)"  >
<path style="stroke: none; stroke-width: 1; stroke-dasharray: none; stroke-linecap: butt; stroke-dashoffset: 0; stroke-linejoin: miter; stroke-miterlimit: 4; fill: rgb(7,72,94); fill-rule: nonzero; opacity: 1;"  transform=" translate(-237.5, -45)" d="m 230 0 h 15 v 90 h -15 z" stroke-linecap="round" />
</g>
		<g transform="matrix(1 0 0 1 34.96 -225.94)"  >
<path style="stroke: none; stroke-width: 1; stroke-dasharray: none; stroke-linecap: butt; stroke-dashoffset: 0; stroke-linejoin: miter; stroke-miterlimit: 4; fill: rgb(179,209,214); fill-rule: nonzero; opacity: 1;"  transform=" translate(-290, -30)" d="m 245 15 h 90 v 30 h -90 z" stroke-linecap="round" />
</g>
		<g transform="matrix(1 0 0 1 -55.39 -225.94)"  >
<path style="stroke: none; stroke-width: 1; stroke-dasharray: none; stroke-linecap: butt; stroke-dashoffset: 0; stroke-linejoin: miter; stroke-miterlimit: 4; fill: rgb(229,234,238); fill-rule: nonzero; opacity: 1;"  transform=" translate(-200, -30)" d="m 155 15 h 90 v 30 h -90 z" stroke-linecap="round" />
</g>
		<g transform="matrix(1 0 0 1 102.46 -68.21)"  >
<path style="stroke: none; stroke-width: 1; stroke-dasharray: none; stroke-linecap: butt; stroke-dashoffset: 0; stroke-linejoin: miter; stroke-miterlimit: 4; fill: rgb(179,209,214); fill-rule: nonzero; opacity: 1;"  transform=" translate(-357.5, -187.5)" d="m 470 285 v 15 h -105 v -15 c 0 -16.54 -13.46 -30 -30 -30 h -90 v -180 h 60 v 50.37 c 0 6.52 2.55 12.63 7.18 17.21 s 10.76 7.07 17.28 7 l 5.06 -0.06 c 74.71 0 135.48 60.78 135.48 135.48 z" stroke-linecap="round" />
</g>
		<g transform="matrix(1 0 0 1 -93.19 -90.71)"  >
<path style="stroke: none; stroke-width: 1; stroke-dasharray: none; stroke-linecap: butt; stroke-dashoffset: 0; stroke-linejoin: miter; stroke-miterlimit: 4; fill: rgb(229,234,238); fill-rule: nonzero; opacity: 1;"  transform=" translate(-162.5, -165)" d="m 245 75 v 180 h -165 v -105 h 76.66 c 15.63 0 28.34 -12.71 28.34 -28.34 v -46.66 z" stroke-linecap="round" />
</g>
		<g transform="matrix(1 0 0 1 191.83 164.38)"  >
<path style="stroke: none; stroke-width: 1; stroke-dasharray: none; stroke-linecap: butt; stroke-dashoffset: 0; stroke-linejoin: miter; stroke-miterlimit: 4; fill: rgb(106,168,255); fill-rule: nonzero; opacity: 1;"  transform=" translate(-446.25, -419.1)" d="m 490 440 c 0 38.6 -31.4 70 -70 70 l -17.5 -90 l 17.5 -91.81 l 11 11.88 c 0.59 0.63 14.48 15.67 28.57 34.77 c 20.48 27.75 30.43 49.06 30.43 65.16 z" stroke-linecap="round" />
</g>
		<g transform="matrix(1 0 0 1 130.37 164.38)"  >
<path style="stroke: none; stroke-width: 1; stroke-dasharray: none; stroke-linecap: butt; stroke-dashoffset: 0; stroke-linejoin: miter; stroke-miterlimit: 4; fill: rgb(126,215,245); fill-rule: nonzero; opacity: 1;"  transform=" translate(-385, -419.1)" d="m 420 328.19 v 181.81 c -38.6 0 -70 -31.4 -70 -70 c 0 -16.1 9.95 -37.41 30.43 -65.16 c 14.09 -19.1 27.98 -34.14 28.57 -34.77 z" stroke-linecap="round" />
</g>
		<g transform="matrix(1 0 0 1 -190.92 -53.09)"  >
<path style="stroke: none; stroke-width: 1; stroke-dasharray: none; stroke-linecap: butt; stroke-dashoffset: 0; stroke-linejoin: miter; stroke-miterlimit: 4; fill: rgb(179,209,214); fill-rule: nonzero; opacity: 1;"  transform=" translate(-65, -202.5)" d="m 60.544 105 h -40.544 v 195 h 40.544 c 27.27 0 49.456 -22.186 49.456 -49.456 v -96.089 c 0 -27.269 -22.186 -49.455 -49.456 -49.455 z" stroke-linecap="round" />
</g>
</g>
</g>
<g transform="matrix(1.12 0 0 1.12 1224.13 394.26)" style=""  >
		<text xml:space="preserve" font-family="'Permanent Marker', cursive" font-size="72" font-style="normal" font-weight="bold" style="stroke: none; stroke-width: 1; stroke-dasharray: none; stroke-linecap: butt; stroke-dashoffset: 0; stroke-linejoin: miter; stroke-miterlimit: 4; fill: rgb(81,127,192); fill-rule: nonzero; opacity: 1; white-space: pre;" ><tspan x="-1086.19" y="22.62" style="font-family: 'Open Sans', sans-serif; ">CAP Tracker</tspan></text>
</g>
</svg>