<?xml version="1.0" encoding="UTF-8" standalone="no" ?>
<!DOCTYPE svg PUBLIC "-//W3C//DTD SVG 1.1//EN" "http://www.w3.org/Graphics/SVG/1.1/DTD/svg11.dtd">
<svg xmlns="http://www.w3.org/2000/svg" xmlns:xlink="http://www.w3.org/1999/xlink" version="1.1" width="640" height="480" viewBox="0 0 640 480" xml:space="preserve">
<desc>Created with Fabric.js 3.6.3</desc>
<defs>
</defs>
<g transform="matrix(22.85 0 0 22.85 539.82 240.2)"  >
<g style=""   >
		<g transform="matrix(1 0 0 1 -1.5 2.5)"  >
<path style="stroke: none; stroke-width: 1; stroke-dasharray: none; stroke-linecap: butt; stroke-dashoffset: 0; stroke-linejoin: miter; stroke-miterlimit: 4; fill: rgb(0,0,0); fill-rule: nonzero; opacity: 1;"  transform=" translate(-4, -8)" d="M 5 11 H 3 a 0.51 0.51 0 0 1 -0.5 -0.4 L 1 5.6 A 0.5 0.5 0 0 1 1.5 5 h 5 A 0.5 0.5 0 0 1 7 5.6 l -1.49 5 A 0.51 0.51 0 0 1 5 11 Z M 2.76 8 L 5.22 8 L 5.89 6 H 2.11 Z" stroke-linecap="round" />
</g>
		<g transform="matrix(1 0 0 1 1 -3.49)"  >
<path style="stroke: none; stroke-width: 1; stroke-dasharray: none; stroke-linecap: butt; stroke-dashoffset: 0; stroke-linejoin: miter; stroke-miterlimit: 4; fill: rgb(0,0,0); fill-rule: nonzero; opacity: 1;"  transform=" translate(-6.5, -2.01)" d="M 4.5 0 h 0 A 1.5 1.5 0 0 0 3 1.51 v 2 a 0.5 0.5 0 0 0 0.5 0.5 h 1 A 0.5 0.5 0 0 0 5 3.5 v -1 A 0.5 0.5 0 0 1 5.5 2 H 10 V 0 H 4.5 Z" stroke-linecap="round" />
</g>
</g>
</g>
<g transform="matrix(0.44 0 0 0.44 198.33 216.56)" style=""  >
		<text xml:space="preserve" font-family="'Open Sans', sans-serif" font-size="18" font-style="normal" font-weight="normal" style="stroke: none; stroke-width: 1; stroke-dasharray: none; stroke-linecap: butt; stroke-dashoffset: 0; stroke-linejoin: miter; stroke-miterlimit: 4; fill: rgb(0,118,255); fill-rule: nonzero; opacity: 1; white-space: pre;" ><tspan x="-451.39" y="-63.13" style="font-size: 185px; ">Water</tspan><tspan x="-451.39" y="179.36" style="font-size: 185px; ">Assistance</tspan></text>
</g>
<g transform="matrix(1 0 0 1 190.25 318.05)"  >
<g style=""   >
		<g transform="matrix(1 0 0 1 -184.75 -23.25)"  >
<circle style="stroke: none; stroke-width: 1; stroke-dasharray: none; stroke-linecap: butt; stroke-dashoffset: 0; stroke-linejoin: miter; stroke-miterlimit: 4; fill: rgb(20,55,146); fill-opacity: 0.93; fill-rule: nonzero; opacity: 1;"  cx="0" cy="0" r="8" />
</g>
		<g transform="matrix(1 0 0 1 -184.75 -23.25)"  >
<circle style="stroke: none; stroke-width: 1; stroke-dasharray: none; stroke-linecap: butt; stroke-dashoffset: 0; stroke-linejoin: miter; stroke-miterlimit: 4; fill: rgb(20,55,146); fill-opacity: 0.24; fill-rule: nonzero; opacity: 1;"  cx="0" cy="0" r="1" />
</g>
		<g transform="matrix(1 0 0 1 -184.75 -22.25)"  >
<circle style="stroke: none; stroke-width: 1; stroke-dasharray: none; stroke-linecap: butt; stroke-dashoffset: 0; stroke-linejoin: miter; stroke-miterlimit: 4; fill: rgb(20,55,146); fill-opacity: 0.97; fill-rule: nonzero; opacity: 1;"  cx="0" cy="0" r="0.5" />
</g>
		<g transform="matrix(1 0 0 1 -182.75 -19.25)"  >
<circle style="stroke: none; stroke-width: 1; stroke-dasharray: none; stroke-linecap: butt; stroke-dashoffset: 0; stroke-linejoin: miter; stroke-miterlimit: 4; fill: rgb(20,55,146); fill-opacity: 0.66; fill-rule: nonzero; opacity: 1;"  cx="0" cy="0" r="5.5" />
</g>
		<g transform="matrix(1 0 0 1 -180.75 -17.25)"  >
<circle style="stroke: none; stroke-width: 1; stroke-dasharray: none; stroke-linecap: butt; stroke-dashoffset: 0; stroke-linejoin: miter; stroke-miterlimit: 4; fill: rgb(20,55,146); fill-opacity: 0.47; fill-rule: nonzero; opacity: 1;"  cx="0" cy="0" r="3.5" />
</g>
		<g transform="matrix(1 0 0 1 -176.75 -15.25)"  >
<circle style="stroke: none; stroke-width: 1; stroke-dasharray: none; stroke-linecap: butt; stroke-dashoffset: 0; stroke-linejoin: miter; stroke-miterlimit: 4; fill: rgb(20,55,146); fill-opacity: 0.69; fill-rule: nonzero; opacity: 1;"  cx="0" cy="0" r="5.5" />
</g>
		<g transform="matrix(1 0 0 1 -172.75 -13.25)"  >
<circle style="stroke: none; stroke-width: 1; stroke-dasharray: none; stroke-linecap: butt; stroke-dashoffset: 0; stroke-linejoin: miter; stroke-miterlimit: 4; fill: rgb(20,55,146); fill-opacity: 0.21; fill-rule: nonzero; opacity: 1;"  cx="0" cy="0" r="5.5" />
</g>
		<g transform="matrix(1 0 0 1 -165.75 -9.25)"  >
<circle style="stroke: none; stroke-width: 1; stroke-dasharray: none; stroke-linecap: butt; stroke-dashoffset: 0; stroke-linejoin: miter; stroke-miterlimit: 4; fill: rgb(20,55,146); fill-opacity: 0.58; fill-rule: nonzero; opacity: 1;"  cx="0" cy="0" r="9" />
</g>
		<g transform="matrix(1 0 0 1 -156.75 -5.25)"  >
<circle style="stroke: none; stroke-width: 1; stroke-dasharray: none; stroke-linecap: butt; stroke-dashoffset: 0; stroke-linejoin: miter; stroke-miterlimit: 4; fill: rgb(20,55,146); fill-opacity: 0.07; fill-rule: nonzero; opacity: 1;"  cx="0" cy="0" r="9" />
</g>
		<g transform="matrix(1 0 0 1 -150.75 -3.25)"  >
<circle style="stroke: none; stroke-width: 1; stroke-dasharray: none; stroke-linecap: butt; stroke-dashoffset: 0; stroke-linejoin: miter; stroke-miterlimit: 4; fill: rgb(20,55,146); fill-opacity: 0.16; fill-rule: nonzero; opacity: 1;"  cx="0" cy="0" r="8" />
</g>
		<g transform="matrix(1 0 0 1 -143.75 1.75)"  >
<circle style="stroke: none; stroke-width: 1; stroke-dasharray: none; stroke-linecap: butt; stroke-dashoffset: 0; stroke-linejoin: miter; stroke-miterlimit: 4; fill: rgb(20,55,146); fill-opacity: 0.94; fill-rule: nonzero; opacity: 1;"  cx="0" cy="0" r="3.5" />
</g>
		<g transform="matrix(1 0 0 1 -130.75 4.75)"  >
<circle style="stroke: none; stroke-width: 1; stroke-dasharray: none; stroke-linecap: butt; stroke-dashoffset: 0; stroke-linejoin: miter; stroke-miterlimit: 4; fill: rgb(20,55,146); fill-opacity: 0.57; fill-rule: nonzero; opacity: 1;"  cx="0" cy="0" r="3" />
</g>
		<g transform="matrix(1 0 0 1 -116.75 7.75)"  >
<circle style="stroke: none; stroke-width: 1; stroke-dasharray: none; stroke-linecap: butt; stroke-dashoffset: 0; stroke-linejoin: miter; stroke-miterlimit: 4; fill: rgb(20,55,146); fill-opacity: 0.97; fill-rule: nonzero; opacity: 1;"  cx="0" cy="0" r="8" />
</g>
		<g transform="matrix(1 0 0 1 -99.75 12.75)"  >
<circle style="stroke: none; stroke-width: 1; stroke-dasharray: none; stroke-linecap: butt; stroke-dashoffset: 0; stroke-linejoin: miter; stroke-miterlimit: 4; fill: rgb(20,55,146); fill-opacity: 0.13; fill-rule: nonzero; opacity: 1;"  cx="0" cy="0" r="0" />
</g>
		<g transform="matrix(1 0 0 1 -84.75 16.75)"  >
<circle style="stroke: none; stroke-width: 1; stroke-dasharray: none; stroke-linecap: butt; stroke-dashoffset: 0; stroke-linejoin: miter; stroke-miterlimit: 4; fill: rgb(20,55,146); fill-opacity: 0.99; fill-rule: nonzero; opacity: 1;"  cx="0" cy="0" r="10.5" />
</g>
		<g transform="matrix(1 0 0 1 -72.75 16.75)"  >
<circle style="stroke: none; stroke-width: 1; stroke-dasharray: none; stroke-linecap: butt; stroke-dashoffset: 0; stroke-linejoin: miter; stroke-miterlimit: 4; fill: rgb(20,55,146); fill-opacity: 0.23; fill-rule: nonzero; opacity: 1;"  cx="0" cy="0" r="8.5" />
</g>
		<g transform="matrix(1 0 0 1 -63.75 18.75)"  >
<circle style="stroke: none; stroke-width: 1; stroke-dasharray: none; stroke-linecap: butt; stroke-dashoffset: 0; stroke-linejoin: miter; stroke-miterlimit: 4; fill: rgb(20,55,146); fill-opacity: 0.83; fill-rule: nonzero; opacity: 1;"  cx="0" cy="0" r="3" />
</g>
		<g transform="matrix(1 0 0 1 -58.75 20.75)"  >
<circle style="stroke: none; stroke-width: 1; stroke-dasharray: none; stroke-linecap: butt; stroke-dashoffset: 0; stroke-linejoin: miter; stroke-miterlimit: 4; fill: rgb(20,55,146); fill-opacity: 0.24; fill-rule: nonzero; opacity: 1;"  cx="0" cy="0" r="0.5" />
</g>
		<g transform="matrix(1 0 0 1 -48.75 20.75)"  >
<circle style="stroke: none; stroke-width: 1; stroke-dasharray: none; stroke-linecap: butt; stroke-dashoffset: 0; stroke-linejoin: miter; stroke-miterlimit: 4; fill: rgb(20,55,146); fill-opacity: 0.03; fill-rule: nonzero; opacity: 1;"  cx="0" cy="0" r="9.5" />
</g>
		<g transform="matrix(1 0 0 1 -40.75 20.75)"  >
<circle style="stroke: none; stroke-width: 1; stroke-dasharray: none; stroke-linecap: butt; stroke-dashoffset: 0; stroke-linejoin: miter; stroke-miterlimit: 4; fill: rgb(20,55,146); fill-opacity: 0.22; fill-rule: nonzero; opacity: 1;"  cx="0" cy="0" r="4.5" />
</g>
		<g transform="matrix(1 0 0 1 -34.75 20.75)"  >
<circle style="stroke: none; stroke-width: 1; stroke-dasharray: none; stroke-linecap: butt; stroke-dashoffset: 0; stroke-linejoin: miter; stroke-miterlimit: 4; fill: rgb(20,55,146); fill-opacity: 0.13; fill-rule: nonzero; opacity: 1;"  cx="0" cy="0" r="0.5" />
</g>
		<g transform="matrix(1 0 0 1 -28.75 20.75)"  >
<circle style="stroke: none; stroke-width: 1; stroke-dasharray: none; stroke-linecap: butt; stroke-dashoffset: 0; stroke-linejoin: miter; stroke-miterlimit: 4; fill: rgb(20,55,146); fill-opacity: 0.05; fill-rule: nonzero; opacity: 1;"  cx="0" cy="0" r="9" />
</g>
		<g transform="matrix(1 0 0 1 -20.75 20.75)"  >
<circle style="stroke: none; stroke-width: 1; stroke-dasharray: none; stroke-linecap: butt; stroke-dashoffset: 0; stroke-linejoin: miter; stroke-miterlimit: 4; fill: rgb(20,55,146); fill-opacity: 0.88; fill-rule: nonzero; opacity: 1;"  cx="0" cy="0" r="8.5" />
</g>
		<g transform="matrix(1 0 0 1 -10.75 20.75)"  >
<circle style="stroke: none; stroke-width: 1; stroke-dasharray: none; stroke-linecap: butt; stroke-dashoffset: 0; stroke-linejoin: miter; stroke-miterlimit: 4; fill: rgb(20,55,146); fill-opacity: 0.99; fill-rule: nonzero; opacity: 1;"  cx="0" cy="0" r="10.5" />
</g>
		<g transform="matrix(1 0 0 1 1.25 20.75)"  >
<circle style="stroke: none; stroke-width: 1; stroke-dasharray: none; stroke-linecap: butt; stroke-dashoffset: 0; stroke-linejoin: miter; stroke-miterlimit: 4; fill: rgb(20,55,146); fill-opacity: 0.31; fill-rule: nonzero; opacity: 1;"  cx="0" cy="0" r="8.5" />
</g>
		<g transform="matrix(1 0 0 1 11.25 20.75)"  >
<circle style="stroke: none; stroke-width: 1; stroke-dasharray: none; stroke-linecap: butt; stroke-dashoffset: 0; stroke-linejoin: miter; stroke-miterlimit: 4; fill: rgb(20,55,146); fill-opacity: 0.22; fill-rule: nonzero; opacity: 1;"  cx="0" cy="0" r="1" />
</g>
		<g transform="matrix(1 0 0 1 21.25 20.75)"  >
<circle style="stroke: none; stroke-width: 1; stroke-dasharray: none; stroke-linecap: butt; stroke-dashoffset: 0; stroke-linejoin: miter; stroke-miterlimit: 4; fill: rgb(20,55,146); fill-opacity: 0.64; fill-rule: nonzero; opacity: 1;"  cx="0" cy="0" r="5" />
</g>
		<g transform="matrix(1 0 0 1 27.25 20.75)"  >
<circle style="stroke: none; stroke-width: 1; stroke-dasharray: none; stroke-linecap: butt; stroke-dashoffset: 0; stroke-linejoin: miter; stroke-miterlimit: 4; fill: rgb(20,55,146); fill-opacity: 0.88; fill-rule: nonzero; opacity: 1;"  cx="0" cy="0" r="0" />
</g>
		<g transform="matrix(1 0 0 1 32.25 20.75)"  >
<circle style="stroke: none; stroke-width: 1; stroke-dasharray: none; stroke-linecap: butt; stroke-dashoffset: 0; stroke-linejoin: miter; stroke-miterlimit: 4; fill: rgb(20,55,146); fill-opacity: 0.11; fill-rule: nonzero; opacity: 1;"  cx="0" cy="0" r="8" />
</g>
		<g transform="matrix(1 0 0 1 41.25 20.75)"  >
<circle style="stroke: none; stroke-width: 1; stroke-dasharray: none; stroke-linecap: butt; stroke-dashoffset: 0; stroke-linejoin: miter; stroke-miterlimit: 4; fill: rgb(20,55,146); fill-opacity: 0.4; fill-rule: nonzero; opacity: 1;"  cx="0" cy="0" r="2" />
</g>
		<g transform="matrix(1 0 0 1 51.25 20.75)"  >
<circle style="stroke: none; stroke-width: 1; stroke-dasharray: none; stroke-linecap: butt; stroke-dashoffset: 0; stroke-linejoin: miter; stroke-miterlimit: 4; fill: rgb(20,55,146); fill-opacity: 0.56; fill-rule: nonzero; opacity: 1;"  cx="0" cy="0" r="3.5" />
</g>
		<g transform="matrix(1 0 0 1 62.25 20.75)"  >
<circle style="stroke: none; stroke-width: 1; stroke-dasharray: none; stroke-linecap: butt; stroke-dashoffset: 0; stroke-linejoin: miter; stroke-miterlimit: 4; fill: rgb(20,55,146); fill-opacity: 0.39; fill-rule: nonzero; opacity: 1;"  cx="0" cy="0" r="8.5" />
</g>
		<g transform="matrix(1 0 0 1 68.25 20.75)"  >
<circle style="stroke: none; stroke-width: 1; stroke-dasharray: none; stroke-linecap: butt; stroke-dashoffset: 0; stroke-linejoin: miter; stroke-miterlimit: 4; fill: rgb(20,55,146); fill-opacity: 0.33; fill-rule: nonzero; opacity: 1;"  cx="0" cy="0" r="3.5" />
</g>
		<g transform="matrix(1 0 0 1 70.25 20.75)"  >
<circle style="stroke: none; stroke-width: 1; stroke-dasharray: none; stroke-linecap: butt; stroke-dashoffset: 0; stroke-linejoin: miter; stroke-miterlimit: 4; fill: rgb(20,55,146); fill-opacity: 0.5; fill-rule: nonzero; opacity: 1;"  cx="0" cy="0" r="3" />
</g>
		<g transform="matrix(1 0 0 1 73.25 20.75)"  >
<circle style="stroke: none; stroke-width: 1; stroke-dasharray: none; stroke-linecap: butt; stroke-dashoffset: 0; stroke-linejoin: miter; stroke-miterlimit: 4; fill: rgb(20,55,146); fill-opacity: 0.02; fill-rule: nonzero; opacity: 1;"  cx="0" cy="0" r="1.5" />
</g>
		<g transform="matrix(1 0 0 1 77.25 20.75)"  >
<circle style="stroke: none; stroke-width: 1; stroke-dasharray: none; stroke-linecap: butt; stroke-dashoffset: 0; stroke-linejoin: miter; stroke-miterlimit: 4; fill: rgb(20,55,146); fill-opacity: 0.77; fill-rule: nonzero; opacity: 1;"  cx="0" cy="0" r="3.5" />
</g>
		<g transform="matrix(1 0 0 1 81.25 20.75)"  >
<circle style="stroke: none; stroke-width: 1; stroke-dasharray: none; stroke-linecap: butt; stroke-dashoffset: 0; stroke-linejoin: miter; stroke-miterlimit: 4; fill: rgb(20,55,146); fill-opacity: 0.58; fill-rule: nonzero; opacity: 1;"  cx="0" cy="0" r="8" />
</g>
		<g transform="matrix(1 0 0 1 87.25 20.75)"  >
<circle style="stroke: none; stroke-width: 1; stroke-dasharray: none; stroke-linecap: butt; stroke-dashoffset: 0; stroke-linejoin: miter; stroke-miterlimit: 4; fill: rgb(20,55,146); fill-opacity: 0.31; fill-rule: nonzero; opacity: 1;"  cx="0" cy="0" r="6.5" />
</g>
		<g transform="matrix(1 0 0 1 94.25 18.75)"  >
<circle style="stroke: none; stroke-width: 1; stroke-dasharray: none; stroke-linecap: butt; stroke-dashoffset: 0; stroke-linejoin: miter; stroke-miterlimit: 4; fill: rgb(20,55,146); fill-opacity: 0.05; fill-rule: nonzero; opacity: 1;"  cx="0" cy="0" r="7" />
</g>
		<g transform="matrix(1 0 0 1 101.25 16.75)"  >
<circle style="stroke: none; stroke-width: 1; stroke-dasharray: none; stroke-linecap: butt; stroke-dashoffset: 0; stroke-linejoin: miter; stroke-miterlimit: 4; fill: rgb(20,55,146); fill-opacity: 0.79; fill-rule: nonzero; opacity: 1;"  cx="0" cy="0" r="9.5" />
</g>
		<g transform="matrix(1 0 0 1 106.25 15.75)"  >
<circle style="stroke: none; stroke-width: 1; stroke-dasharray: none; stroke-linecap: butt; stroke-dashoffset: 0; stroke-linejoin: miter; stroke-miterlimit: 4; fill: rgb(20,55,146); fill-opacity: 0.83; fill-rule: nonzero; opacity: 1;"  cx="0" cy="0" r="0" />
</g>
		<g transform="matrix(1 0 0 1 110.25 14.75)"  >
<circle style="stroke: none; stroke-width: 1; stroke-dasharray: none; stroke-linecap: butt; stroke-dashoffset: 0; stroke-linejoin: miter; stroke-miterlimit: 4; fill: rgb(20,55,146); fill-opacity: 0.53; fill-rule: nonzero; opacity: 1;"  cx="0" cy="0" r="2.5" />
</g>
		<g transform="matrix(1 0 0 1 113.25 13.75)"  >
<circle style="stroke: none; stroke-width: 1; stroke-dasharray: none; stroke-linecap: butt; stroke-dashoffset: 0; stroke-linejoin: miter; stroke-miterlimit: 4; fill: rgb(20,55,146); fill-opacity: 0.69; fill-rule: nonzero; opacity: 1;"  cx="0" cy="0" r="5.5" />
</g>
		<g transform="matrix(1 0 0 1 119.25 12.75)"  >
<circle style="stroke: none; stroke-width: 1; stroke-dasharray: none; stroke-linecap: butt; stroke-dashoffset: 0; stroke-linejoin: miter; stroke-miterlimit: 4; fill: rgb(20,55,146); fill-opacity: 0.08; fill-rule: nonzero; opacity: 1;"  cx="0" cy="0" r="2" />
</g>
		<g transform="matrix(1 0 0 1 124.25 10.75)"  >
<circle style="stroke: none; stroke-width: 1; stroke-dasharray: none; stroke-linecap: butt; stroke-dashoffset: 0; stroke-linejoin: miter; stroke-miterlimit: 4; fill: rgb(20,55,146); fill-rule: nonzero; opacity: 1;"  cx="0" cy="0" r="8.5" />
</g>
		<g transform="matrix(1 0 0 1 128.25 9.75)"  >
<circle style="stroke: none; stroke-width: 1; stroke-dasharray: none; stroke-linecap: butt; stroke-dashoffset: 0; stroke-linejoin: miter; stroke-miterlimit: 4; fill: rgb(20,55,146); fill-opacity: 0.33; fill-rule: nonzero; opacity: 1;"  cx="0" cy="0" r="10.5" />
</g>
		<g transform="matrix(1 0 0 1 131.25 8.75)"  >
<circle style="stroke: none; stroke-width: 1; stroke-dasharray: none; stroke-linecap: butt; stroke-dashoffset: 0; stroke-linejoin: miter; stroke-miterlimit: 4; fill: rgb(20,55,146); fill-opacity: 0.57; fill-rule: nonzero; opacity: 1;"  cx="0" cy="0" r="5.5" />
</g>
		<g transform="matrix(1 0 0 1 137.25 6.75)"  >
<circle style="stroke: none; stroke-width: 1; stroke-dasharray: none; stroke-linecap: butt; stroke-dashoffset: 0; stroke-linejoin: miter; stroke-miterlimit: 4; fill: rgb(20,55,146); fill-opacity: 0.05; fill-rule: nonzero; opacity: 1;"  cx="0" cy="0" r="8" />
</g>
		<g transform="matrix(1 0 0 1 142.25 4.75)"  >
<circle style="stroke: none; stroke-width: 1; stroke-dasharray: none; stroke-linecap: butt; stroke-dashoffset: 0; stroke-linejoin: miter; stroke-miterlimit: 4; fill: rgb(20,55,146); fill-opacity: 0.27; fill-rule: nonzero; opacity: 1;"  cx="0" cy="0" r="9.5" />
</g>
		<g transform="matrix(1 0 0 1 147.25 4.75)"  >
<circle style="stroke: none; stroke-width: 1; stroke-dasharray: none; stroke-linecap: butt; stroke-dashoffset: 0; stroke-linejoin: miter; stroke-miterlimit: 4; fill: rgb(20,55,146); fill-opacity: 0.93; fill-rule: nonzero; opacity: 1;"  cx="0" cy="0" r="3.5" />
</g>
		<g transform="matrix(1 0 0 1 151.25 4.75)"  >
<circle style="stroke: none; stroke-width: 1; stroke-dasharray: none; stroke-linecap: butt; stroke-dashoffset: 0; stroke-linejoin: miter; stroke-miterlimit: 4; fill: rgb(20,55,146); fill-opacity: 0.07; fill-rule: nonzero; opacity: 1;"  cx="0" cy="0" r="4" />
</g>
		<g transform="matrix(1 0 0 1 155.25 2.75)"  >
<circle style="stroke: none; stroke-width: 1; stroke-dasharray: none; stroke-linecap: butt; stroke-dashoffset: 0; stroke-linejoin: miter; stroke-miterlimit: 4; fill: rgb(20,55,146); fill-opacity: 0.47; fill-rule: nonzero; opacity: 1;"  cx="0" cy="0" r="9.5" />
</g>
		<g transform="matrix(1 0 0 1 158.25 2.75)"  >
<circle style="stroke: none; stroke-width: 1; stroke-dasharray: none; stroke-linecap: butt; stroke-dashoffset: 0; stroke-linejoin: miter; stroke-miterlimit: 4; fill: rgb(20,55,146); fill-opacity: 0.9; fill-rule: nonzero; opacity: 1;"  cx="0" cy="0" r="8" />
</g>
		<g transform="matrix(1 0 0 1 161.25 1.75)"  >
<circle style="stroke: none; stroke-width: 1; stroke-dasharray: none; stroke-linecap: butt; stroke-dashoffset: 0; stroke-linejoin: miter; stroke-miterlimit: 4; fill: rgb(20,55,146); fill-opacity: 0; fill-rule: nonzero; opacity: 1;"  cx="0" cy="0" r="3.5" />
</g>
		<g transform="matrix(1 0 0 1 163.25 0.75)"  >
<circle style="stroke: none; stroke-width: 1; stroke-dasharray: none; stroke-linecap: butt; stroke-dashoffset: 0; stroke-linejoin: miter; stroke-miterlimit: 4; fill: rgb(20,55,146); fill-opacity: 0.11; fill-rule: nonzero; opacity: 1;"  cx="0" cy="0" r="0" />
</g>
		<g transform="matrix(1 0 0 1 166.25 -1.25)"  >
<circle style="stroke: none; stroke-width: 1; stroke-dasharray: none; stroke-linecap: butt; stroke-dashoffset: 0; stroke-linejoin: miter; stroke-miterlimit: 4; fill: rgb(20,55,146); fill-opacity: 0.03; fill-rule: nonzero; opacity: 1;"  cx="0" cy="0" r="2.5" />
</g>
		<g transform="matrix(1 0 0 1 168.25 -2.25)"  >
<circle style="stroke: none; stroke-width: 1; stroke-dasharray: none; stroke-linecap: butt; stroke-dashoffset: 0; stroke-linejoin: miter; stroke-miterlimit: 4; fill: rgb(20,55,146); fill-opacity: 0.45; fill-rule: nonzero; opacity: 1;"  cx="0" cy="0" r="2.5" />
</g>
		<g transform="matrix(1 0 0 1 170.25 -3.25)"  >
<circle style="stroke: none; stroke-width: 1; stroke-dasharray: none; stroke-linecap: butt; stroke-dashoffset: 0; stroke-linejoin: miter; stroke-miterlimit: 4; fill: rgb(20,55,146); fill-opacity: 0.14; fill-rule: nonzero; opacity: 1;"  cx="0" cy="0" r="6.5" />
</g>
		<g transform="matrix(1 0 0 1 177.25 -5.25)"  >
<circle style="stroke: none; stroke-width: 1; stroke-dasharray: none; stroke-linecap: butt; stroke-dashoffset: 0; stroke-linejoin: miter; stroke-miterlimit: 4; fill: rgb(20,55,146); fill-opacity: 0.45; fill-rule: nonzero; opacity: 1;"  cx="0" cy="0" r="10" />
</g>
		<g transform="matrix(1 0 0 1 181.25 -5.25)"  >
<circle style="stroke: none; stroke-width: 1; stroke-dasharray: none; stroke-linecap: butt; stroke-dashoffset: 0; stroke-linejoin: miter; stroke-miterlimit: 4; fill: rgb(20,55,146); fill-opacity: 0.81; fill-rule: nonzero; opacity: 1;"  cx="0" cy="0" r="9" />
</g>
		<g transform="matrix(1 0 0 1 182.25 -6.25)"  >
<circle style="stroke: none; stroke-width: 1; stroke-dasharray: none; stroke-linecap: butt; stroke-dashoffset: 0; stroke-linejoin: miter; stroke-miterlimit: 4; fill: rgb(20,55,146); fill-opacity: 0.98; fill-rule: nonzero; opacity: 1;"  cx="0" cy="0" r="10.5" />
</g>
		<g transform="matrix(1 0 0 1 183.25 -6.25)"  >
<circle style="stroke: none; stroke-width: 1; stroke-dasharray: none; stroke-linecap: butt; stroke-dashoffset: 0; stroke-linejoin: miter; stroke-miterlimit: 4; fill: rgb(20,55,146); fill-opacity: 0.68; fill-rule: nonzero; opacity: 1;"  cx="0" cy="0" r="7" />
</g>
		<g transform="matrix(1 0 0 1 186.25 -7.25)"  >
<circle style="stroke: none; stroke-width: 1; stroke-dasharray: none; stroke-linecap: butt; stroke-dashoffset: 0; stroke-linejoin: miter; stroke-miterlimit: 4; fill: rgb(20,55,146); fill-opacity: 0.93; fill-rule: nonzero; opacity: 1;"  cx="0" cy="0" r="6.5" />
</g>
		<g transform="matrix(1 0 0 1 189.25 -9.25)"  >
<circle style="stroke: none; stroke-width: 1; stroke-dasharray: none; stroke-linecap: butt; stroke-dashoffset: 0; stroke-linejoin: miter; stroke-miterlimit: 4; fill: rgb(20,55,146); fill-opacity: 0.62; fill-rule: nonzero; opacity: 1;"  cx="0" cy="0" r="0.5" />
</g>
</g>
</g>
</svg>