<svg xmlns="http://www.w3.org/2000/svg" height="80.28" width="506.267"><path d="M92.93 13.579c-1.1-.901-3.603-2.035-6.105-2.035-5.773 0-9.177 4.137-9.177 9.609 0 5.905 4.071 9.876 9.177 9.876 2.534 0 4.538-.8 5.905-1.735l1.268 1.935c-1.568 1.069-4.338 2.136-7.34 2.136-8.342 0-12.58-5.705-12.58-12.145 0-5.873 4.604-12.012 12.98-12.012 3.336 0 5.672 1.168 7.207 2.368L92.93 13.58M98.206 24.423c0 3.136 1.068 6.806 4.971 6.806 3.938 0 5.005-3.67 5.005-6.806 0-3.003-1.234-6.407-5.005-6.407-3.736 0-4.97 3.404-4.97 6.407zm-3.236 0c0-5.406 4.003-8.542 8.207-8.542 4.205 0 8.242 3.136 8.242 8.542 0 5.172-3.303 8.942-8.242 8.942-4.904 0-8.207-3.77-8.207-8.942M114.392 32.964V8.441h3.003v24.523h-3.003M121.502 32.964V8.441h3.002v24.523h-3.002M139.087 22.821c0-2.603-1.102-4.805-3.738-4.805-3.203 0-4.47 2.67-4.57 4.805zm-8.51 2.003c-.032 3.336 2.337 6.405 5.639 6.405 1.536 0 3.404-.567 4.572-1.434l.867 1.634c-1.735 1.234-3.803 1.936-5.538 1.936-5.205 0-8.642-3.203-8.642-9.075 0-5.774 4.138-8.409 7.908-8.409 5.072 0 6.773 4.571 6.438 8.943h-11.243M156.673 24.09c0-3.138-1.701-6.074-4.97-6.074-3.471 0-4.906 2.736-4.906 6.274 0 3.569 1.535 6.94 4.704 6.94 3.638 0 5.172-3.437 5.172-7.14zm3.004 8.274c0 6.372-3.97 8.941-8.476 8.941-2.468 0-4.938-.466-6.873-1.668l.835-1.968c2.034 1.168 3.904 1.501 5.972 1.501 3.437 0 5.538-2.202 5.538-6.573V30.33h-.066c-1.168 1.634-2.936 3.036-5.572 3.036-4.606 0-7.474-3.604-7.474-8.942 0-4.338 3.203-8.542 7.975-8.542 2.001 0 4.137 1.001 5.07 2.703h.067v-2.302h3.004v16.082M174.195 22.821c0-2.603-1.102-4.805-3.738-4.805-3.202 0-4.472 2.67-4.57 4.805zm-8.51 2.003c-.033 3.336 2.336 6.405 5.639 6.405 1.536 0 3.404-.567 4.572-1.434l.867 1.634c-1.735 1.234-3.803 1.936-5.538 1.936-5.205 0-8.642-3.203-8.642-9.075 0-5.774 4.137-8.409 7.908-8.409 5.072 0 6.773 4.571 6.438 8.943h-11.244M190.648 24.423c0 3.136 1.068 6.806 4.972 6.806 3.937 0 5.004-3.67 5.004-6.806 0-3.003-1.233-6.407-5.004-6.407-3.737 0-4.972 3.404-4.972 6.407zm-3.236 0c0-5.406 4.004-8.542 8.208-8.542 4.204 0 8.241 3.136 8.241 8.542 0 5.172-3.304 8.942-8.241 8.942-4.905 0-8.208-3.77-8.208-8.942M207.003 32.964V18.016h-2.67v-1.734h2.67v-2.036c0-4.47 3.002-5.805 4.87-5.805.868 0 1.902.167 2.636.7l-.666 1.534c-.502-.132-.968-.233-1.636-.233-.5 0-2.202.134-2.202 2.836v3.004h4.004v1.734h-4.004v14.948h-3.002M235.8 23.756c-1.168-3.237-2.303-6.474-3.47-10.677h-.067c-1.2 4.203-2.436 7.44-3.703 10.677zm-1.801-14.148l8.708 23.356h-3.738l-2.401-6.874h-8.91l-2.502 6.874h-3.136l9.51-23.356h2.469M256.19 24.09c0-3.138-1.702-6.074-4.971-6.074-3.47 0-4.904 2.736-4.904 6.274 0 3.569 1.534 6.94 4.704 6.94 3.637 0 5.172-3.437 5.172-7.14zm3.003 8.274c0 6.372-3.97 8.941-8.474 8.941-2.47 0-4.939-.466-6.874-1.668l.834-1.968c2.036 1.168 3.904 1.501 5.973 1.501 3.437 0 5.539-2.202 5.539-6.573V30.33h-.067c-1.168 1.634-2.936 3.036-5.572 3.036-4.605 0-7.475-3.604-7.475-8.942 0-4.338 3.204-8.542 7.975-8.542 2.003 0 4.137 1.001 5.072 2.703h.067v-2.302h3.002v16.082M266.17 18.35l1.203-1.268c.7-.7 1.802-1.2 2.502-1.2.734 0 1.834.533 2.769 1.634l-1.368 1.935c-.735-.367-1.468-.7-2.236-.7-1.535 0-2.803 1.534-2.803 5.238v8.975h-3.002V16.282h2.936v2.068M277.017 16.282v16.682h-3.002V16.282zm-3.404-5.507c0-.833.702-1.768 1.903-1.768s1.901.935 1.901 1.768c0 .901-.433 2.036-1.901 2.036s-1.903-1.135-1.903-2.036M293.935 31.63c-1.635 1.168-3.604 1.735-5.038 1.735-7.909 0-8.909-6.474-8.909-8.776 0-4.17 2.77-8.708 9.043-8.708 1.701 0 3.236.433 4.47 1.368l-1.001 1.702c-.967-.467-2.203-.868-3.436-.868-2.737 0-5.84 1.802-5.84 6.34 0 3.47 1.768 6.74 5.807 6.74 1.434 0 2.769-.368 4.069-1.201l.835 1.667M307.484 31.03c-1.701 1.467-3.203 2.335-5.37 2.335-3.838 0-5.907-2.136-5.907-6.34V16.282h3.002v10.075c0 3.137 1.335 4.805 4.038 4.805 2.302 0 4.205-1.9 4.205-5.138v-9.742h3.003v16.682h-2.971V31.03M314.561 32.964V8.441h3.003v24.523h-3.003M325.373 16.282h4.371v1.734h-4.37v9.443c0 2.336.466 3.737 2.302 3.737 1.1 0 1.735-.267 2.303-.568l.733 1.67c-1.035.666-2.27 1.067-3.403 1.067-3.337 0-4.938-1.936-4.938-5.338v-10.01h-2.335v-1.735h2.335v-4.005l3.002-1v5.005M343.493 31.03c-1.701 1.467-3.202 2.335-5.372 2.335-3.836 0-5.905-2.136-5.905-6.34V16.282h3.003v10.075c0 3.137 1.334 4.805 4.038 4.805 2.302 0 4.203-1.9 4.203-5.138v-9.742h3.004v16.682h-2.97V31.03M353.507 18.35l1.201-1.268c.701-.7 1.801-1.2 2.503-1.2.733 0 1.834.533 2.77 1.634l-1.369 1.935c-.735-.367-1.468-.7-2.236-.7-1.535 0-2.801 1.534-2.801 5.238v8.975h-3.004V16.282h2.936v2.068M367.321 24.022c-2.634.802-4.004 2.068-4.004 4.172 0 1.734 1.203 2.835 2.403 2.835 2.136 0 4.872-2.636 4.472-7.84zm1.803 7.14c-1.168 1.168-2.636 2.203-4.17 2.203-2.803 0-4.74-2.002-4.74-5.14 0-2.901 2.47-4.737 5.94-5.771l4.038-1.269c-.135-2.035-1.703-3.335-3.337-3.335-1.935 0-3.17.8-4.371 1.801l-1.167-1.502c1.667-1.601 3.37-2.268 5.706-2.268 2.501 0 6.172.8 6.172 5.672v7.341c0 1.268.166 2.87.734 4.07h-3.27c-.4-.7-.467-1.768-.467-2.836l-1.068 1.034M377.201 32.964V8.441h3.004v24.523h-3.004M380.672 38.102l2.203-5.873c.868-2.402 1.234-3.134 2.536-3.134.734 0 2.402.7.734 3.502l-3.637 6.24-1.836-.735M418.348 32.964h-3.237V21.352H403.7v11.612h-3.237V9.608h3.237v9.41h11.41v-9.41h3.238v23.356M433.099 31.03c-1.702 1.467-3.203 2.335-5.372 2.335-3.838 0-5.906-2.136-5.906-6.34V16.282h3.003v10.075c0 3.137 1.335 4.805 4.039 4.805 2.301 0 4.202-1.9 4.202-5.138v-9.742h3.004v16.682h-2.97V31.03M443.147 18.35c1.368-1.602 3.369-2.469 5.204-2.469 2.636 0 4.27 1.102 5.305 2.469 1.603-1.468 3.87-2.469 5.739-2.469 3.704 0 5.573 2.402 5.672 5.939v11.144h-3.003v-9.942c0-2.403-.6-4.805-3.67-4.805-2.535 0-4.27 1.334-4.27 4.704v10.043h-3.004v-9.942c0-3.137-1.335-4.805-3.77-4.805-2.535 0-4.171 1.634-4.171 4.837v9.91h-3.003V16.282h2.97v2.068M475.15 24.022c-2.635.802-4.003 2.068-4.003 4.172 0 1.734 1.201 2.835 2.401 2.835 2.136 0 4.872-2.636 4.472-7.84zm1.802 7.14c-1.168 1.168-2.635 2.203-4.17 2.203-2.803 0-4.74-2.002-4.74-5.14 0-2.901 2.47-4.737 5.94-5.771l4.038-1.269c-.135-2.035-1.703-3.335-3.337-3.335-1.935 0-3.17.8-4.371 1.801l-1.167-1.502c1.668-1.601 3.37-2.268 5.706-2.268 2.501 0 6.172.8 6.172 5.672v7.341c0 1.268.166 2.87.734 4.07h-3.27c-.4-.7-.467-1.768-.467-2.836l-1.068 1.034M488 18.35c1.568-1.668 3.97-2.469 5.707-2.469 3.836 0 5.904 2.135 5.904 6.34v10.743h-3.003v-10.11c0-3.136-1.335-4.771-4.036-4.771-2.37 0-4.539 1.635-4.539 4.838v10.043h-3.002V16.282H488v2.068M500.081 38.102l2.203-5.873c.867-2.402 1.235-3.134 2.535-3.134.734 0 2.402.7.734 3.502l-3.636 6.24-1.836-.735M81.386 56.587c-2.103 1.166-3.004 2.902-3.004 4.837 0 2.135 1.67 5.072 5.205 5.072 2.57 0 4.705-1.468 5.673-2.836zm9.375 4.638c.968-1.969.334-5.407-.967-7.275h-3.27l1.001-2.069h10.01L96.5 53.95h-3.938c1.202 1.936 1.602 5.705 0 8.876l5.105 4.37-2.97 1.503-3.803-3.504c-1.802 2.034-4.438 3.504-7.675 3.504-7.273 0-8.307-5.54-8.307-6.974 0-3.07 2.235-5.473 5.005-6.74-1.302-1.234-3.037-2.836-3.037-5.24 0-2.735 2.503-5.204 6.24-5.204 1.768 0 3.302.534 4.771 1.602l-1.167 1.868c-.568-.367-1.87-1.134-3.304-1.134-2.169 0-3.27 1.234-3.27 2.702 0 1.334.834 2.57 3.136 4.672l7.474 6.974M129.171 68.298h-2.535c-5.072-6.073-13.78-16.55-15.181-18.585h-.068v18.585h-2.669V44.94h2.403c5.138 6.074 13.747 16.285 15.315 18.62h.066V44.94h2.67v23.358M138.753 59.355c-2.636.802-4.004 2.069-4.004 4.172 0 1.734 1.202 2.836 2.402 2.836 2.136 0 4.872-2.637 4.472-7.841zm1.802 7.14c-1.168 1.168-2.636 2.204-4.171 2.204-2.803 0-4.738-2.003-4.738-5.14 0-2.902 2.469-4.738 5.94-5.772l4.037-1.268c-.134-2.035-1.702-3.336-3.336-3.336-1.936 0-3.171.8-4.372 1.802l-1.168-1.502c1.669-1.602 3.37-2.269 5.706-2.269 2.503 0 6.172.8 6.172 5.672v7.341c0 1.269.167 2.87.735 4.07h-3.27c-.4-.7-.467-1.768-.467-2.835l-1.068 1.034M151.503 51.615h4.37v1.735h-4.37v9.443c0 2.335.466 3.736 2.302 3.736 1.1 0 1.735-.267 2.302-.567l.734 1.669c-1.034.667-2.269 1.068-3.404 1.068-3.336 0-4.937-1.937-4.937-5.339V53.35h-2.336v-1.735h2.336V47.61l3.003-1v5.005M169.621 66.363c-1.701 1.467-3.202 2.336-5.372 2.336-3.837 0-5.905-2.136-5.905-6.34V51.615h3.003V61.69c0 3.137 1.334 4.806 4.037 4.806 2.303 0 4.204-1.901 4.204-5.139v-9.742h3.003v16.683h-2.97v-1.935M179.636 53.683l1.2-1.268c.701-.7 1.803-1.2 2.503-1.2.734 0 1.836.533 2.769 1.635l-1.368 1.935c-.733-.368-1.468-.7-2.235-.7-1.534 0-2.802 1.533-2.802 5.237v8.976H176.7V51.615h2.936v2.068M193.45 59.355c-2.634.802-4.003 2.069-4.003 4.172 0 1.734 1.201 2.836 2.402 2.836 2.135 0 4.872-2.637 4.471-7.841zm1.803 7.14c-1.168 1.168-2.636 2.204-4.17 2.204-2.804 0-4.739-2.003-4.739-5.14 0-2.902 2.47-4.738 5.939-5.772l4.037-1.268c-.133-2.035-1.701-3.336-3.336-3.336-1.936 0-3.17.8-4.37 1.802l-1.169-1.502c1.668-1.602 3.371-2.269 5.706-2.269 2.502 0 6.172.8 6.172 5.672v7.341c0 1.269.166 2.87.734 4.07h-3.269c-.401-.7-.468-1.768-.468-2.835l-1.067 1.034M203.33 68.298V43.774h3.005v24.524h-3.004M222.753 56.286h1.835c4.137 0 4.905-3.07 4.905-5.038 0-2.87-1.802-3.971-3.97-3.971h-2.77zm-3.237-11.346h6.673c3.804 0 6.774 1.97 6.774 6.007 0 3.437-1.668 5.373-3.904 6.806l5.806 9.944-3.269 1.002-5.407-10.077h-3.436v9.676h-3.237V44.94M246.88 58.155c0-2.604-1.101-4.805-3.737-4.805-3.203 0-4.471 2.669-4.571 4.805zm-8.508 2.002c-.033 3.336 2.335 6.406 5.639 6.406 1.534 0 3.402-.567 4.57-1.435l.868 1.634c-1.736 1.235-3.804 1.937-5.538 1.937-5.206 0-8.643-3.203-8.643-9.076 0-5.773 4.137-8.409 7.908-8.409 5.072 0 6.773 4.572 6.44 8.943h-11.244M260.33 54.285c-1.202-.802-2.169-1.068-3.07-1.068-1.068 0-2.436.5-2.436 1.901 0 1.4 1.536 2.102 3.437 3.537 2.136 1.635 3.536 3.003 3.536 5.338 0 2.803-2.768 4.706-5.838 4.706-1.902 0-4.038-.835-5.139-2.103l1.47-1.702c.966.901 2.267 1.669 3.602 1.669 1.401 0 2.836-.734 2.836-2.37 0-1.934-1.735-2.77-3.303-3.903-1.902-1.369-3.57-2.503-3.57-4.771 0-2.637 2.602-4.305 5.538-4.305 1.636 0 3.238.667 4.104 1.535l-1.168 1.536M266.737 59.756c0 3.137 1.068 6.807 4.972 6.807 3.938 0 5.006-3.67 5.006-6.807 0-3.003-1.235-6.406-5.006-6.406-3.736 0-4.972 3.403-4.972 6.406zm-3.236 0c0-5.405 4.004-8.542 8.208-8.542 4.204 0 8.242 3.137 8.242 8.542 0 5.172-3.303 8.943-8.242 8.943-4.904 0-8.208-3.771-8.208-8.943M294.068 66.363c-1.701 1.467-3.203 2.336-5.37 2.336-3.838 0-5.907-2.136-5.907-6.34V51.615h3.002V61.69c0 3.137 1.335 4.806 4.038 4.806 2.302 0 4.205-1.901 4.205-5.139v-9.742h3.003v16.683h-2.971v-1.935M304.083 53.683l1.201-1.268c.7-.7 1.801-1.2 2.503-1.2.733 0 1.834.533 2.769 1.635l-1.368 1.935c-.735-.368-1.468-.7-2.236-.7-1.535 0-2.803 1.533-2.803 5.237v8.976h-3.002V51.615h2.936v2.068M324.137 66.963c-1.634 1.168-3.602 1.736-5.038 1.736-7.907 0-8.908-6.474-8.908-8.776 0-4.171 2.769-8.709 9.041-8.709 1.701 0 3.237.434 4.472 1.369l-1.001 1.702c-.968-.468-2.203-.869-3.438-.869-2.734 0-5.838 1.802-5.838 6.34 0 3.47 1.769 6.74 5.805 6.74 1.435 0 2.77-.368 4.072-1.2l.833 1.667M337.02 58.155c0-2.604-1.101-4.805-3.737-4.805-3.203 0-4.471 2.669-4.572 4.805zm-8.51 2.002c-.031 3.336 2.337 6.406 5.64 6.406 1.534 0 3.403-.567 4.57-1.435l.87 1.634c-1.737 1.235-3.806 1.937-5.54 1.937-5.206 0-8.642-3.203-8.642-9.076 0-5.773 4.137-8.409 7.908-8.409 5.07 0 6.773 4.572 6.44 8.943h-11.245M362.65 48.545c-1.135-.835-2.637-1.668-4.038-1.668-2.336 0-3.636 1.367-3.636 3.17 0 1.667 1.435 2.902 4.437 5.071 3.203 2.336 5.071 4.471 5.071 7.474 0 3.703-3.503 6.107-7.24 6.107-2.236 0-4.905-.803-6.573-2.437l1.434-1.935c1.37.968 2.871 2.036 5.072 2.036 2.303 0 4.071-1.235 4.071-3.838 0-2.936-3.503-4.838-5.405-6.24-1.935-1.5-4.104-2.935-4.104-6.239 0-3.136 3.036-5.505 6.673-5.505 2.436 0 4.47.867 5.772 2.336l-1.533 1.668M379.87 66.963c-1.635 1.168-3.605 1.736-5.04 1.736-7.906 0-8.907-6.474-8.907-8.776 0-4.171 2.769-8.709 9.041-8.709 1.701 0 3.237.434 4.47 1.369l-1 1.702c-.967-.468-2.202-.869-3.437-.869-2.734 0-5.838 1.802-5.838 6.34 0 3.47 1.769 6.74 5.805 6.74 1.435 0 2.77-.368 4.072-1.2l.833 1.667M385.277 51.615v16.683h-3.002V51.615zm-3.402-5.506c0-.834.701-1.769 1.901-1.769 1.203 0 1.903.935 1.903 1.769 0 .9-.434 2.035-1.903 2.035-1.467 0-1.901-1.134-1.901-2.035M399.861 58.155c0-2.604-1.101-4.805-3.737-4.805-3.203 0-4.472 2.669-4.572 4.805zm-8.509 2.002c-.033 3.336 2.336 6.406 5.639 6.406 1.534 0 3.404-.567 4.57-1.435l.868 1.634c-1.734 1.235-3.804 1.937-5.538 1.937-5.206 0-8.642-3.203-8.642-9.076 0-5.773 4.138-8.409 7.907-8.409 5.072 0 6.773 4.572 6.44 8.943h-11.244M408.437 53.683c1.568-1.668 3.971-2.469 5.707-2.469 3.837 0 5.904 2.136 5.904 6.34v10.744h-3.003v-10.11c0-3.137-1.334-4.772-4.036-4.772-2.369 0-4.538 1.635-4.538 4.839v10.043h-3.003V51.615h2.97v2.068M436.97 66.963c-1.635 1.168-3.603 1.736-5.04 1.736-7.906 0-8.907-6.474-8.907-8.776 0-4.171 2.769-8.709 9.041-8.709 1.701 0 3.237.434 4.472 1.369l-1.001 1.702c-.968-.468-2.203-.869-3.438-.869-2.734 0-5.837 1.802-5.837 6.34 0 3.47 1.768 6.74 5.804 6.74 1.435 0 2.77-.368 4.072-1.2l.833 1.667M449.853 58.155c0-2.604-1.101-4.805-3.737-4.805-3.203 0-4.47 2.669-4.572 4.805zm-8.509 2.002c-.032 3.336 2.336 6.406 5.64 6.406 1.533 0 3.403-.567 4.57-1.435l.869 1.634c-1.736 1.235-3.806 1.937-5.54 1.937-5.206 0-8.642-3.203-8.642-9.076 0-5.773 4.138-8.409 7.908-8.409 5.071 0 6.774 4.572 6.44 8.943h-11.245M463.301 54.285c-1.201-.802-2.169-1.068-3.069-1.068-1.068 0-2.436.5-2.436 1.901 0 1.4 1.535 2.102 3.436 3.537 2.136 1.635 3.537 3.003 3.537 5.338 0 2.803-2.769 4.706-5.84 4.706-1.9 0-4.036-.835-5.137-2.103l1.468-1.702c.968.901 2.27 1.669 3.604 1.669 1.4 0 2.836-.734 2.836-2.37 0-1.934-1.735-2.77-3.304-3.903-1.901-1.369-3.57-2.503-3.57-4.771 0-2.637 2.603-4.305 5.54-4.305 1.634 0 3.235.667 4.103 1.535l-1.168 1.536M57.596 80.28h-.96V.002h.96V80.28M27.241 51.336l-7.193 5.123-7.197-5.123c-5.116-3.497-9.502-6.496-11.798-11.05C2.948 48.822 11.3 52.015 20.048 58.858c8.747-6.843 17.096-10.036 18.99-18.572-2.296 4.554-6.678 7.553-11.797 11.05" fill="#64696e"/><path d="M0 9.602v.896c.557.192.741.367.797 1.18v20.627c0 11.471 9.343 14.506 19.196 22.213 9.856-7.707 19.199-10.742 19.199-22.213v-20.86c.073-.623.274-.777.773-.947v-.896H0" fill="#a80c30"/><path d="M23.937 43.184s1.597-.68 2.472-3.32c.77 1.609.569 3.261.569 3.261-.708.16-3.04.059-3.04.059M32.51 28.092s.974 5.304-2.474 5.485c-3.326.174-4.893-4.828-4.893-4.828s.803 9.775 5.467 9.131c5.251-.724 1.9-9.788 1.9-9.788M7.182 41.922l.007-.001c3.888-.886 6.867-5.423 7.74-7.244l.555-1.154.335 1.235c.017.067.38 1.43.38 3.228 0 .2-.005.403-.017.61 1.341.05 2.299-.22 2.895-.84.854-.883 1.111-2.556.793-5.115-.156-1.222-.609-3.17-1.01-4.888a81.99 81.99 0 01-.516-2.298c-.75-3.757.181-6.09 1.094-7.385a6.24 6.24 0 01.466-.579c-2.692.905-4.949 2.312-7.275 4.638l1.637 1.899.67-.628c.632 2.36.178 4.532.178 4.532a18.948 18.948 0 00-1.878-2.376l.444-.748-1.476-1.713-.17-.193c-1.816 2.493-2.402 4.53-2.402 4.53l1.286 1.179.75.679.251-.723c1.387 2.59.12 5.013.12 5.013-.226-.883-1.137-2.188-1.137-2.188l.358-1.188-1.915-1.734c-1.992 6.223-4.653 8.239-4.653 8.239s2.878-.52 4.482-1.057c0 0-.044 3.28-1.992 6.27" fill="#fff"/><path d="M22.922 21.54c.93-.65 2.508-1.151 3.988-1.037.375.028.693-.07.288-.284-1.107-.585-3.69-.385-4.603.236-1.463.998-1.215 2.775-1.182 2.818.292-.508.786-1.228 1.51-1.733zm13.329-2.068l-4.6.194c.003.543-.07 1.091-.245 1.61.429 1.877.13 2.896.13 2.896-.77-1.79-1.355-2.287-1.355-2.287-4.224-1.877-6.598 2.366-6.344 5.103.207 2.25 1.024 5.235 1.66 9.919.536 3.941-1.459 5.645-3.755 6.036-.05.007-.1.017-.15.027-.015 0-.025 0-.038.002a7.815 7.815 0 01-1.185.059c-.014-.005-.03-.005-.044-.005-.047 0-.09-.006-.137-.006a8.435 8.435 0 01-.53-.05c-1.786-.248-5.786-.974-9.917-1.074 2.43-1.42 4.331-3.875 5.392-5.615.06.482.111 1.07.111 1.718 0 .323-.01.663-.044 1.01l-.04.474.475.04c1.902.165 3.25-.197 4.132-1.106 1.077-1.122 1.408-2.993 1.043-5.894-.156-1.272-.619-3.246-1.024-4.986-.2-.87-.39-1.697-.508-2.267-.683-3.429.134-5.51.94-6.65.629-.895 1.5-1.55 2.453-1.865l.05-.01 1.571-4.819h.493l-1.055 4.631c.244-.042.492-.081.743-.12l1.356-4.27h.488l-.887 4.136a84.672 84.672 0 014.614-.444c.274.11.57.425.829.866l4.426-1.362.165.477-4.232 1.642c.034.086.067.177.093.268l4.628-.574.076.496-4.49.897a7.4 7.4 0 01.045.25l4.67.152-.003.501" fill="#fff"/></svg>