<?xml version="1.0" standalone="no"?>
<!DOCTYPE svg PUBLIC "-//W3C//DTD SVG 1.0//EN" "http://www.w3.org/TR/2001/REC-SVG-20010904/DTD/svg10.dtd">
<svg xmlns="http://www.w3.org/2000/svg" xmlns:xlink="http://www.w3.org/1999/xlink" id="body_1" width="126" height="20">

<g transform="matrix(0.24901186 0 0 0.25 0 0)">
	<g transform="matrix(0.9994726 0 0 0.9965123 0 0)">
	</g>
    <path transform="matrix(0.9994726 0 0 0.9965123 0 0)"  d="M92.93 13.579C 91.83 12.678 89.327 11.544001 86.825 11.544001C 81.051994 11.544001 77.647995 15.681001 77.647995 21.153C 77.647995 27.058 81.718994 31.029 86.825 31.029C 89.35899 31.029 91.363 30.229 92.729996 29.293999L92.729996 29.293999L93.99799 31.228998C 92.42999 32.297997 89.659996 33.364998 86.65799 33.364998C 78.31599 33.364998 74.07799 27.659998 74.07799 21.219997C 74.07799 15.346997 78.68199 9.207997 87.05798 9.207997C 90.39398 9.207997 92.72998 10.375998 94.264984 11.575997L94.264984 11.575997L92.93 13.58L92.93 13.579zM98.206 24.423C 98.206 27.559 99.274 31.229 103.177 31.229C 107.115005 31.229 108.182 27.559 108.182 24.423C 108.182 21.42 106.948 18.016 103.177 18.016C 99.441 18.016 98.207 21.42 98.207 24.423L98.207 24.423L92.93 13.579zM94.97 24.423C 94.97 19.017 98.973 15.8810005 103.177 15.8810005C 107.382 15.8810005 111.419 19.017 111.419 24.423C 111.419 29.595001 108.116 33.365 103.177 33.365C 98.273 33.365 94.97 29.595001 94.97 24.423M114.392 32.964L114.392 8.441L117.395 8.441L117.395 32.964L114.392 32.964zM121.502 32.964L121.502 8.441L124.504 8.441L124.504 32.964L121.502 32.964zM139.087 22.821C 139.087 20.217999 137.985 18.015999 135.349 18.015999C 132.146 18.015999 130.879 20.685999 130.77899 22.821zM130.57701 24.824C 130.54501 28.16 132.91402 31.229 136.216 31.229C 137.752 31.229 139.62001 30.662 140.78801 29.795L140.78801 29.795L141.65501 31.429C 139.92001 32.663002 137.85202 33.365 136.11702 33.365C 130.91202 33.365 127.47502 30.162003 127.47502 24.29C 127.47502 18.516 131.61302 15.8810005 135.38303 15.8810005C 140.45503 15.8810005 142.15602 20.452 141.82103 24.824001L141.82103 24.824001L130.57803 24.824001zM156.673 24.09C 156.673 20.952 154.972 18.016 151.703 18.016C 148.23201 18.016 146.797 20.752 146.797 24.29C 146.797 27.859001 148.332 31.230001 151.50099 31.230001C 155.13899 31.230001 156.67299 27.793001 156.67299 24.090002zM159.677 32.364C 159.677 38.736 155.707 41.305 151.201 41.305C 148.733 41.305 146.263 40.839 144.328 39.637L144.328 39.637L145.16301 37.669003C 147.197 38.837 149.06702 39.170002 151.13501 39.170002C 154.572 39.170002 156.673 36.968002 156.673 32.597L156.673 32.597L156.673 30.33L156.60701 30.33C 155.43901 31.964 153.671 33.366 151.035 33.366C 146.429 33.366 143.561 29.762001 143.561 24.424C 143.561 20.086 146.764 15.882 151.53601 15.882C 153.53702 15.882 155.673 16.883 156.60602 18.585L156.60602 18.585L156.67302 18.585L156.67302 16.282999L159.67702 16.282999L159.67702 32.364998zM174.195 22.821C 174.195 20.217999 173.093 18.015999 170.457 18.015999C 167.255 18.015999 165.985 20.685999 165.887 22.821zM165.68501 24.824C 165.65201 28.16 168.02101 31.229 171.324 31.229C 172.86 31.229 174.72801 30.662 175.89601 29.795L175.89601 29.795L176.76302 31.429C 175.02802 32.663002 172.96002 33.365 171.22502 33.365C 166.02002 33.365 162.58302 30.162003 162.58302 24.29C 162.58302 18.516 166.72002 15.8810005 170.49103 15.8810005C 175.56303 15.8810005 177.26402 20.452 176.92903 24.824001L176.92903 24.824001L165.68503 24.824001zM190.648 24.423C 190.648 27.559 191.71599 31.229 195.62 31.229C 199.55699 31.229 200.624 27.559 200.624 24.423C 200.624 21.42 199.39099 18.016 195.62 18.016C 191.883 18.016 190.648 21.42 190.648 24.423zM187.41199 24.423C 187.41199 19.017 191.41599 15.8810005 195.62 15.8810005C 199.82399 15.8810005 203.861 19.017 203.861 24.423C 203.861 29.595001 200.55699 33.365 195.62 33.365C 190.715 33.365 187.41199 29.595001 187.41199 24.423M207.003 32.964L207.003 18.016L204.33301 18.016L204.33301 16.282001L207.003 16.282001L207.003 14.246001C 207.003 9.776001 210.005 8.441002 211.873 8.441002C 212.741 8.441002 213.775 8.608002 214.509 9.141002L214.509 9.141002L213.843 10.675002C 213.341 10.543002 212.875 10.442002 212.207 10.442002C 211.707 10.442002 210.005 10.576002 210.005 13.278002L210.005 13.278002L210.005 16.282001L214.009 16.282001L214.009 18.016L210.005 18.016L210.005 32.964L207.003 32.964zM235.8 23.756C 234.632 20.519001 233.49701 17.282001 232.33 13.079L232.33 13.079L232.263 13.079C 231.063 17.282001 229.827 20.519001 228.56 23.756zM233.99901 9.608001L242.707 32.964L238.969 32.964L236.568 26.09L227.65799 26.09L225.15599 32.964L222.01999 32.964L231.52998 9.608L233.99898 9.608zM256.19 24.09C 256.19 20.952 254.488 18.016 251.21901 18.016C 247.74901 18.016 246.315 20.752 246.315 24.29C 246.315 27.859001 247.849 31.230001 251.019 31.230001C 254.65599 31.230001 256.191 27.793001 256.191 24.090002zM259.193 32.364C 259.193 38.736 255.22299 41.305 250.719 41.305C 248.249 41.305 245.78 40.839 243.845 39.637L243.845 39.637L244.679 37.669003C 246.715 38.837 248.58301 39.170002 250.65201 39.170002C 254.089 39.170002 256.191 36.968002 256.191 32.597L256.191 32.597L256.191 30.33L256.12402 30.33C 254.95602 31.964 253.18802 33.366 250.55202 33.366C 245.94702 33.366 243.07701 29.762001 243.07701 24.424C 243.07701 20.086 246.281 15.882 251.05202 15.882C 253.05502 15.882 255.18901 16.883 256.12402 18.585L256.12402 18.585L256.191 18.585L256.191 16.282999L259.19302 16.282999L259.19302 32.364998zM266.17 18.35L267.37302 17.082C 268.07303 16.382 269.17502 15.882001 269.87503 15.882001C 270.60904 15.882001 271.70905 16.415 272.64404 17.516L272.64404 17.516L271.27603 19.451C 270.54105 19.084 269.80804 18.751 269.04004 18.751C 267.50504 18.751 266.23703 20.285 266.23703 23.988998L266.23703 23.988998L266.23703 32.963997L263.23502 32.963997L263.23502 16.282L266.17102 16.282L266.17102 18.35zM277.017 16.282L277.017 32.963997L274.01498 32.963997L274.01498 16.282zM273.613 10.775C 273.613 9.941999 274.315 9.007 275.51602 9.007C 276.71704 9.007 277.41702 9.942 277.41702 10.775C 277.41702 11.676 276.984 12.811 275.51602 12.811C 274.04803 12.811 273.613 11.676 273.613 10.775M293.935 31.63C 292.3 32.798 290.331 33.364998 288.897 33.364998C 280.988 33.364998 279.988 26.890999 279.988 24.588997C 279.988 20.418997 282.758 15.880997 289.031 15.880997C 290.732 15.880997 292.267 16.313997 293.501 17.248997L293.501 17.248997L292.5 18.950996C 291.533 18.483997 290.297 18.082996 289.064 18.082996C 286.327 18.082996 283.224 19.884996 283.224 24.422997C 283.224 27.892996 284.992 31.162996 289.031 31.162996C 290.465 31.162996 291.80002 30.794996 293.1 29.961996L293.1 29.961996L293.935 31.628996zM307.484 31.03C 305.78302 32.497 304.281 33.365 302.114 33.365C 298.276 33.365 296.207 31.229002 296.207 27.025002L296.207 27.025002L296.207 16.282L299.209 16.282L299.209 26.356998C 299.209 29.494 300.544 31.161999 303.247 31.161999C 305.549 31.161999 307.452 29.262 307.452 26.023998L307.452 26.023998L307.452 16.281998L310.455 16.281998L310.455 32.963997L307.48398 32.963997L307.48398 31.03zM314.561 32.964L314.561 8.441L317.564 8.441L317.564 32.964L314.561 32.964zM325.373 16.282L329.744 16.282L329.744 18.015999L325.374 18.015999L325.374 27.459C 325.374 29.795 325.84 31.196 327.676 31.196C 328.776 31.196 329.41098 30.928999 329.979 30.627998L329.979 30.627998L330.712 32.297997C 329.677 32.963997 328.44202 33.364998 327.309 33.364998C 323.972 33.364998 322.371 31.428997 322.371 28.026999L322.371 28.026999L322.371 18.016998L320.036 18.016998L320.036 16.281998L322.371 16.281998L322.371 12.276998L325.37302 11.276998L325.37302 16.281998zM343.493 31.03C 341.79202 32.497 340.29102 33.365 338.121 33.365C 334.285 33.365 332.216 31.229002 332.216 27.025002L332.216 27.025002L332.216 16.282L335.219 16.282L335.219 26.356998C 335.219 29.494 336.553 31.161999 339.257 31.161999C 341.559 31.161999 343.46 29.262 343.46 26.023998L343.46 26.023998L343.46 16.281998L346.464 16.281998L346.464 32.963997L343.494 32.963997L343.494 31.03zM353.507 18.35L354.70798 17.082C 355.40897 16.382 356.50897 15.882001 357.21097 15.882001C 357.94397 15.882001 359.04498 16.415 359.98096 17.516L359.98096 17.516L358.61197 19.451C 357.87698 19.084 357.14398 18.751 356.37598 18.751C 354.84097 18.751 353.57498 20.285 353.57498 23.988998L353.57498 23.988998L353.57498 32.963997L350.57098 32.963997L350.57098 16.282L353.507 16.282L353.507 18.35zM367.321 24.022C 364.687 24.824 363.31702 26.09 363.31702 28.194C 363.31702 29.928 364.52002 31.029 365.72003 31.029C 367.85602 31.029 370.59204 28.393 370.19202 23.189zM369.12402 31.161999C 367.95602 32.329998 366.48804 33.364998 364.954 33.364998C 362.151 33.364998 360.21402 31.362997 360.21402 28.224998C 360.21402 25.323997 362.68402 23.487999 366.15402 22.453999L366.15402 22.453999L370.19202 21.184998C 370.057 19.149998 368.489 17.849998 366.855 17.849998C 364.92 17.849998 363.685 18.649998 362.484 19.651L362.484 19.651L361.31702 18.148998C 362.984 16.547998 364.687 15.880999 367.023 15.880999C 369.52402 15.880999 373.195 16.680998 373.195 21.552998L373.195 21.552998L373.195 28.893997C 373.195 30.161997 373.361 31.763996 373.92902 32.963997L373.92902 32.963997L370.65903 32.963997C 370.25903 32.263996 370.19202 31.195997 370.19202 30.127996L370.19202 30.127996L369.12402 31.161997zM377.201 32.964L377.201 8.441L380.205 8.441L380.205 32.964L377.201 32.964zM380.672 38.102L382.875 32.229C 383.743 29.827 384.109 29.095 385.411 29.095C 386.14502 29.095 387.81302 29.795 386.14502 32.597L386.14502 32.597L382.50803 38.836998L380.67203 38.101997zM418.348 32.964L415.111 32.964L415.111 21.352L403.7 21.352L403.7 32.964L400.463 32.964L400.463 9.608L403.7 9.608L403.7 19.018L415.11002 19.018L415.11002 9.608L418.34802 9.608L418.34802 32.964zM433.099 31.03C 431.397 32.497 429.896 33.365 427.727 33.365C 423.88898 33.365 421.82098 31.229002 421.82098 27.025002L421.82098 27.025002L421.82098 16.282L424.82397 16.282L424.82397 26.356998C 424.82397 29.494 426.15897 31.161999 428.86298 31.161999C 431.16397 31.161999 433.06497 29.262 433.06497 26.023998L433.06497 26.023998L433.06497 16.281998L436.06897 16.281998L436.06897 32.963997L433.09897 32.963997L433.09897 31.03zM443.147 18.35C 444.515 16.748001 446.516 15.8810005 448.351 15.8810005C 450.987 15.8810005 452.621 16.983 453.656 18.35C 455.259 16.882 457.526 15.8810005 459.39502 15.8810005C 463.09903 15.8810005 464.96802 18.283 465.06702 21.82L465.06702 21.82L465.06702 32.964L462.06403 32.964L462.06403 23.022C 462.06403 20.619 461.46402 18.217 458.394 18.217C 455.859 18.217 454.12402 19.550999 454.12402 22.921L454.12402 22.921L454.12402 32.964L451.12003 32.964L451.12003 23.022C 451.12003 19.884998 449.78503 18.217 447.35004 18.217C 444.81503 18.217 443.17905 19.851 443.17905 23.053999L443.17905 23.053999L443.17905 32.963997L440.17606 32.963997L440.17606 16.282L443.14606 16.282L443.14606 18.35zM475.15 24.022C 472.51498 24.824 471.147 26.09 471.147 28.194C 471.147 29.928 472.348 31.029 473.548 31.029C 475.684 31.029 478.42 28.393 478.02002 23.189zM476.952 31.161999C 475.784 32.329998 474.317 33.364998 472.78198 33.364998C 469.97897 33.364998 468.042 31.362997 468.042 28.224998C 468.042 25.323997 470.512 23.487999 473.982 22.453999L473.982 22.453999L478.02 21.184998C 477.88498 19.149998 476.317 17.849998 474.68298 17.849998C 472.748 17.849998 471.51297 18.649998 470.31198 19.651L470.31198 19.651L469.145 18.148998C 470.813 16.547998 472.51498 15.880999 474.85098 15.880999C 477.352 15.880999 481.02298 16.680998 481.02298 21.552998L481.02298 21.552998L481.02298 28.893997C 481.02298 30.161997 481.18896 31.763996 481.757 32.963997L481.757 32.963997L478.487 32.963997C 478.087 32.263996 478.02 31.195997 478.02 30.127996L478.02 30.127996L476.952 31.161997zM488 18.35C 489.568 16.682001 491.97 15.8810005 493.707 15.8810005C 497.543 15.8810005 499.611 18.016 499.611 22.221L499.611 22.221L499.611 32.964L496.608 32.964L496.608 22.854C 496.608 19.718 495.273 18.083 492.572 18.083C 490.202 18.083 488.033 19.718 488.033 22.921L488.033 22.921L488.033 32.964L485.03098 32.964L485.03098 16.282L488 16.282L488 18.35zM500.081 38.102L502.284 32.229C 503.151 29.827 503.51898 29.095 504.819 29.095C 505.553 29.095 507.221 29.795 505.553 32.597L505.553 32.597L501.91702 38.836998L500.08102 38.101997zM81.386 56.587C 79.283005 57.753002 78.382 59.489002 78.382 61.424004C 78.382 63.559002 80.052 66.496 83.587006 66.496C 86.157005 66.496 88.29201 65.028 89.26 63.660004zM90.761 61.225002C 91.729004 59.256 91.095 55.818 89.794 53.95L89.794 53.95L86.524 53.95L87.525 51.881L97.535 51.881L96.5 53.95L92.562 53.95C 93.764 55.886 94.163994 59.655 92.562 62.826L92.562 62.826L97.667 67.196L94.697 68.699L90.894 65.195C 89.091995 67.229 86.45599 68.699 83.218994 68.699C 75.94599 68.699 74.911995 63.158997 74.911995 61.725C 74.911995 58.655 77.146996 56.252 79.91699 54.985C 78.61499 53.751 76.87999 52.149002 76.87999 49.745003C 76.87999 47.010002 79.38299 44.541004 83.11999 44.541004C 84.887985 44.541004 86.42199 45.075005 87.89099 46.143005L87.89099 46.143005L86.72399 48.011005C 86.15599 47.644005 84.85399 46.877007 83.41999 46.877007C 81.25099 46.877007 80.149994 48.111008 80.149994 49.579006C 80.149994 50.913006 80.98399 52.149006 83.285995 54.251007L83.285995 54.251007L90.759995 61.225006zM129.171 68.298L126.636 68.298C 121.564 62.225 112.856 51.747997 111.455 49.712997L111.455 49.712997L111.387 49.712997L111.387 68.298L108.718 68.298L108.718 44.94L111.121 44.94C 116.259 51.014 124.868004 61.225 126.436005 63.559998L126.436005 63.559998L126.50201 63.559998L126.50201 44.94L129.17201 44.94L129.17201 68.298zM138.753 59.355C 136.117 60.156998 134.74901 61.424 134.74901 63.527C 134.74901 65.261 135.951 66.363 137.151 66.363C 139.287 66.363 142.023 63.725998 141.623 58.522zM140.55501 66.495C 139.38701 67.663 137.919 68.699005 136.384 68.699005C 133.58101 68.699005 131.646 66.69601 131.646 63.559006C 131.646 60.657005 134.11499 58.821007 137.586 57.787006L137.586 57.787006L141.623 56.519005C 141.489 54.484005 139.921 53.183006 138.287 53.183006C 136.351 53.183006 135.116 53.983006 133.91501 54.98501L133.91501 54.98501L132.74701 53.48301C 134.41602 51.88101 136.117 51.21401 138.453 51.21401C 140.95601 51.21401 144.625 52.014008 144.625 56.88601L144.625 56.88601L144.625 64.22701C 144.625 65.49601 144.792 67.097015 145.36 68.29701L145.36 68.29701L142.09 68.29701C 141.69 67.597015 141.623 66.529015 141.623 65.46201L141.623 65.46201L140.55501 66.49601zM151.503 51.615L155.873 51.615L155.873 53.350002L151.503 53.350002L151.503 62.793003C 151.503 65.128006 151.96901 66.52901 153.80501 66.52901C 154.90501 66.52901 155.54001 66.26201 156.10701 65.962006L156.10701 65.962006L156.841 67.631004C 155.807 68.298004 154.572 68.699005 153.437 68.699005C 150.101 68.699005 148.5 66.76201 148.5 63.360004L148.5 63.360004L148.5 53.35L146.164 53.35L146.164 51.614998L148.5 51.614998L148.5 47.61L151.503 46.61L151.503 51.615zM169.621 66.363C 167.92 67.83 166.419 68.699 164.24901 68.699C 160.412 68.699 158.34401 66.562996 158.34401 62.358997L158.34401 62.358997L158.34401 51.615L161.34702 51.615L161.34702 61.69C 161.34702 64.826996 162.68102 66.496 165.38402 66.496C 167.68701 66.496 169.58801 64.595 169.58801 61.357002L169.58801 61.357002L169.58801 51.615L172.59102 51.615L172.59102 68.298004L169.62102 68.298004L169.62102 66.36301zM179.636 53.683L180.836 52.414997C 181.537 51.714996 182.63899 51.214996 183.339 51.214996C 184.073 51.214996 185.175 51.747997 186.108 52.849995L186.108 52.849995L184.74 54.784996C 184.007 54.416996 183.272 54.084995 182.505 54.084995C 180.97101 54.084995 179.703 55.617996 179.703 59.321995L179.703 59.321995L179.703 68.298L176.7 68.298L176.7 51.615L179.636 51.615L179.636 53.683002zM193.45 59.355C 190.816 60.156998 189.44699 61.424 189.44699 63.527C 189.44699 65.261 190.648 66.363 191.84898 66.363C 193.98398 66.363 196.72098 63.725998 196.31998 58.522zM195.25299 66.495C 194.08499 67.663 192.61699 68.699005 191.083 68.699005C 188.27899 68.699005 186.344 66.69601 186.344 63.559006C 186.344 60.657005 188.814 58.821007 192.28299 57.787006L192.28299 57.787006L196.31999 56.519005C 196.187 54.484005 194.61899 53.183006 192.984 53.183006C 191.04799 53.183006 189.814 53.983006 188.614 54.98501L188.614 54.98501L187.44499 53.48301C 189.11299 51.88101 190.816 51.21401 193.15099 51.21401C 195.65298 51.21401 199.32298 52.014008 199.32298 56.88601L199.32298 56.88601L199.32298 64.22701C 199.32298 65.49601 199.48898 67.097015 200.05698 68.29701L200.05698 68.29701L196.78798 68.29701C 196.38698 67.597015 196.31998 66.529015 196.31998 65.46201L196.31998 65.46201L195.25298 66.49601zM203.33 68.298L203.33 43.774L206.335 43.774L206.335 68.298L203.33101 68.298zM222.753 56.286L224.58801 56.286C 228.725 56.286 229.49301 53.216 229.49301 51.248C 229.49301 48.378002 227.69101 47.277 225.52301 47.277L225.52301 47.277L222.753 47.277zM219.516 44.94L226.18901 44.94C 229.99301 44.94 232.96301 46.91 232.96301 50.947C 232.96301 54.384 231.29501 56.32 229.059 57.753L229.059 57.753L234.865 67.697L231.59601 68.699L226.18901 58.621998L222.753 58.621998L222.753 68.298L219.516 68.298L219.516 44.94zM246.88 58.155C 246.88 55.551 245.779 53.35 243.143 53.35C 239.94 53.35 238.67201 56.018997 238.572 58.155zM238.37201 60.156998C 238.339 63.492996 240.70702 66.562996 244.01102 66.562996C 245.54501 66.562996 247.41301 65.995995 248.58102 65.128L248.58102 65.128L249.44902 66.762C 247.71303 67.997 245.64502 68.699 243.91103 68.699C 238.70503 68.699 235.26802 65.495995 235.26802 59.622997C 235.26802 53.85 239.40501 51.213997 243.17603 51.213997C 248.24803 51.213997 249.94902 55.785995 249.61603 60.156998L249.61603 60.156998L238.37202 60.156998zM260.33 54.285C 259.128 53.483 258.16098 53.217 257.25998 53.217C 256.192 53.217 254.82397 53.717 254.82397 55.118C 254.82397 56.518 256.36 57.22 258.261 58.655C 260.39697 60.289997 261.797 61.657997 261.797 63.993C 261.797 66.796 259.029 68.699 255.959 68.699C 254.057 68.699 251.921 67.864 250.82 66.596L250.82 66.596L252.29001 64.894C 253.25601 65.795 254.557 66.562996 255.89201 66.562996C 257.293 66.562996 258.72803 65.828995 258.72803 64.19299C 258.72803 62.258995 256.99304 61.422993 255.42503 60.289993C 253.52304 58.920994 251.85503 57.786995 251.85503 55.518993C 251.85503 52.881992 254.45703 51.213993 257.39304 51.213993C 259.02902 51.213993 260.63104 51.880993 261.49704 52.748993L261.49704 52.748993L260.32904 54.284992zM266.737 59.756C 266.737 62.893 267.805 66.563 271.70898 66.563C 275.64697 66.563 276.715 62.893005 276.715 59.756004C 276.715 56.753006 275.48 53.350006 271.70898 53.350006C 267.973 53.350006 266.737 56.753006 266.737 59.756004zM263.501 59.756C 263.501 54.351 267.505 51.214 271.709 51.214C 275.91302 51.214 279.95102 54.351 279.95102 59.756C 279.95102 64.928 276.648 68.699 271.709 68.699C 266.80502 68.699 263.501 64.92799 263.501 59.755997M294.068 66.363C 292.367 67.83 290.865 68.699 288.698 68.699C 284.86 68.699 282.791 66.562996 282.791 62.358997L282.791 62.358997L282.791 51.615L285.793 51.615L285.793 61.69C 285.793 64.826996 287.128 66.496 289.831 66.496C 292.133 66.496 294.03598 64.595 294.03598 61.357002L294.03598 61.357002L294.03598 51.615L297.03897 51.615L297.03897 68.298004L294.06796 68.298004L294.06796 66.36301zM304.083 53.683L305.284 52.414997C 305.984 51.714996 307.085 51.214996 307.787 51.214996C 308.52 51.214996 309.621 51.747997 310.556 52.849995L310.556 52.849995L309.188 54.784996C 308.453 54.416996 307.72 54.084995 306.952 54.084995C 305.417 54.084995 304.149 55.617996 304.149 59.321995L304.149 59.321995L304.149 68.298L301.14697 68.298L301.14697 51.615L304.08298 51.615L304.08298 53.683002zM324.137 66.963C 322.503 68.131 320.535 68.699 319.099 68.699C 311.192 68.699 310.191 62.225 310.191 59.922997C 310.191 55.751995 312.96002 51.213997 319.232 51.213997C 320.93298 51.213997 322.469 51.647995 323.70398 52.582996L323.70398 52.582996L322.70297 54.284996C 321.735 53.816998 320.49997 53.415997 319.26498 53.415997C 316.53098 53.415997 313.42697 55.217995 313.42697 59.755997C 313.42697 63.225998 315.19598 66.495995 319.23196 66.495995C 320.66696 66.495995 322.00195 66.128 323.30396 65.296L323.30396 65.296L324.13696 66.963zM337.02 58.155C 337.02 55.551 335.91898 53.35 333.283 53.35C 330.08 53.35 328.81198 56.018997 328.711 58.155zM328.50998 60.156998C 328.47897 63.492996 330.847 66.562996 334.15 66.562996C 335.684 66.562996 337.553 65.995995 338.72 65.128L338.72 65.128L339.59 66.762C 337.853 67.997 335.784 68.699 334.05 68.699C 328.844 68.699 325.408 65.495995 325.408 59.622997C 325.408 53.85 329.54498 51.213997 333.31598 51.213997C 338.386 51.213997 340.089 55.785995 339.75598 60.156998L339.75598 60.156998L328.511 60.156998zM362.65 48.545C 361.51498 47.71 360.013 46.877 358.612 46.877C 356.276 46.877 354.976 48.244 354.976 50.046997C 354.976 51.713997 356.411 52.948997 359.41302 55.117996C 362.61603 57.453995 364.48404 59.588997 364.48404 62.591995C 364.48404 66.295 360.98105 68.699 357.24405 68.699C 355.00806 68.699 352.33905 67.895996 350.67105 66.262L350.67105 66.262L352.10504 64.327C 353.47504 65.295006 354.97604 66.36301 357.17703 66.36301C 359.48004 66.36301 361.24805 65.128006 361.24805 62.525005C 361.24805 59.589005 357.74506 57.687004 355.84305 56.285004C 353.90805 54.785004 351.73904 53.350002 351.73904 50.046005C 351.73904 46.910004 354.77505 44.541004 358.41205 44.541004C 360.84805 44.541004 362.88205 45.408005 364.18405 46.877003L364.18405 46.877003L362.65106 48.545002zM379.87 66.963C 378.235 68.131 376.26498 68.699 374.83 68.699C 366.92398 68.699 365.92297 62.225 365.92297 59.922997C 365.92297 55.751995 368.692 51.213997 374.964 51.213997C 376.66498 51.213997 378.201 51.647995 379.434 52.582996L379.434 52.582996L378.434 54.284996C 377.46698 53.816998 376.232 53.415997 374.99698 53.415997C 372.26297 53.415997 369.15897 55.217995 369.15897 59.755997C 369.15897 63.225998 370.92798 66.495995 374.96396 66.495995C 376.39896 66.495995 377.73395 66.128 379.03595 65.296L379.03595 65.296L379.86896 66.963zM385.277 51.615L385.277 68.298004L382.275 68.298004L382.275 51.615zM381.875 46.109C 381.875 45.275 382.576 44.34 383.776 44.34C 384.979 44.34 385.67902 45.275 385.67902 46.109C 385.67902 47.009003 385.24503 48.144 383.776 48.144C 382.309 48.144 381.875 47.010002 381.875 46.109M399.861 58.155C 399.861 55.551 398.75998 53.35 396.124 53.35C 392.921 53.35 391.65198 56.018997 391.552 58.155zM391.352 60.156998C 391.319 63.492996 393.688 66.562996 396.991 66.562996C 398.525 66.562996 400.395 65.995995 401.561 65.128L401.561 65.128L402.42902 66.762C 400.695 67.997 398.62503 68.699 396.89102 68.699C 391.68503 68.699 388.24902 65.495995 388.24902 59.622997C 388.24902 53.85 392.38702 51.213997 396.15604 51.213997C 401.22803 51.213997 402.92905 55.785995 402.59604 60.156998L402.59604 60.156998L391.35205 60.156998zM408.437 53.683C 410.005 52.015 412.40802 51.213997 414.144 51.213997C 417.98102 51.213997 420.048 53.35 420.048 57.553997L420.048 57.553997L420.048 68.298L417.045 68.298L417.045 58.187996C 417.045 55.050995 415.711 53.415997 413.009 53.415997C 410.64 53.415997 408.471 55.050995 408.471 58.254997L408.471 58.254997L408.471 68.298L405.46802 68.298L405.46802 51.615L408.43802 51.615L408.43802 53.683002zM436.97 66.963C 435.335 68.131 433.367 68.699 431.93 68.699C 424.024 68.699 423.02298 62.225 423.02298 59.922997C 423.02298 55.751995 425.792 51.213997 432.06396 51.213997C 433.76495 51.213997 435.30096 51.647995 436.53595 52.582996L436.53595 52.582996L435.53494 54.284996C 434.56696 53.816998 433.33194 53.415997 432.09695 53.415997C 429.36295 53.415997 426.25995 55.217995 426.25995 59.755997C 426.25995 63.225998 428.02795 66.495995 432.06393 66.495995C 433.49893 66.495995 434.83392 66.128 436.13593 65.296L436.13593 65.296L436.96893 66.963zM449.853 58.155C 449.853 55.551 448.75198 53.35 446.116 53.35C 442.913 53.35 441.646 56.018997 441.544 58.155zM441.344 60.156998C 441.31198 63.492996 443.68 66.562996 446.984 66.562996C 448.517 66.562996 450.38702 65.995995 451.55402 65.128L451.55402 65.128L452.423 66.762C 450.687 67.997 448.617 68.699 446.883 68.699C 441.677 68.699 438.241 65.495995 438.241 59.622997C 438.241 53.85 442.379 51.213997 446.149 51.213997C 451.22 51.213997 452.92297 55.785995 452.589 60.156998L452.589 60.156998L441.344 60.156998zM463.301 54.285C 462.1 53.483 461.132 53.217 460.232 53.217C 459.164 53.217 457.796 53.717 457.796 55.118C 457.796 56.518 459.331 57.22 461.232 58.655C 463.36798 60.289997 464.76898 61.657997 464.76898 63.993C 464.76898 66.796 461.99997 68.699 458.929 68.699C 457.029 68.699 454.89297 67.864 453.792 66.596L453.792 66.596L455.25998 64.894C 456.22797 65.795 457.52997 66.562996 458.86398 66.562996C 460.26398 66.562996 461.69998 65.828995 461.69998 64.19299C 461.69998 62.258995 459.965 61.422993 458.396 60.289993C 456.495 58.920994 454.826 57.786995 454.826 55.518993C 454.826 52.881992 457.429 51.213993 460.366 51.213993C 462 51.213993 463.60098 51.880993 464.469 52.748993L464.469 52.748993L463.301 54.284992zM57.596 80.28L56.636 80.28L56.636 0.002L57.596 0.002L57.596 80.28zM27.241 51.336L20.048 56.459L12.851 51.336C 7.7349997 47.838997 3.349 44.84 1.0529995 40.286C 2.948 48.822 11.3 52.015 20.048 58.858C 28.795 52.015003 37.144 48.822002 39.038002 40.286003C 36.742 44.840004 32.36 47.839005 27.241001 51.336002" stroke="none" fill="#64696E" fill-rule="nonzero" />
	<g transform="matrix(0.9994726 0 0 0.9965123 0 0)">
	</g>
    <path transform="matrix(0.9994726 0 0 0.9965123 0 0)"  d="M0 9.602L0 10.498C 0.557 10.690001 0.741 10.865 0.797 11.678L0.797 11.678L0.797 32.305C 0.797 43.776 10.14 46.811 19.993 54.517998C 29.848999 46.810997 39.192 43.775997 39.192 32.305L39.192 32.305L39.192 11.445C 39.265003 10.822 39.466 10.667999 39.965 10.497999L39.965 10.497999L39.965 9.601999L0 9.601999" stroke="none" fill="#A80C30" fill-rule="nonzero" />
	<g transform="matrix(0.9994726 0 0 0.9965123 0 0)">
	</g>
    <path transform="matrix(0.9994726 0 0 0.9965123 0 0)"  d="M23.937 43.184C 23.937 43.184 25.534 42.503998 26.409 39.864C 27.179 41.473 26.978 43.125 26.978 43.125C 26.27 43.285 23.938 43.184 23.938 43.184M32.51 28.092C 32.51 28.092 33.483997 33.396 30.036 33.577C 26.71 33.751 25.143 28.749 25.143 28.749C 25.143 28.749 25.946 38.524002 30.61 37.88C 35.861 37.156002 32.510002 28.092001 32.510002 28.092001M7.182 41.922L7.189 41.921C 11.077 41.035 14.056 36.498 14.929 34.677002L14.929 34.677002L15.484 33.523003L15.819 34.758003C 15.836 34.825005 16.199 36.188004 16.199 37.986004C 16.199 38.186005 16.194 38.389004 16.182 38.596004C 17.522999 38.646004 18.480999 38.376003 19.077 37.756004C 19.931 36.873005 20.188 35.200005 19.869999 32.641006C 19.713999 31.419006 19.261 29.471006 18.859999 27.753006C 18.109999 23.996006 19.040998 21.663006 19.953999 20.368006C 17.262 21.273006 15.004999 22.680006 12.678999 25.006006L12.678999 25.006006L14.315999 26.905006L14.985999 26.277006C 15.617999 28.637007 15.164 30.809006 15.164 30.809006L15.164 30.809006L15.608 30.061007L14.132 28.348007L13.962 28.155006C 12.146 30.648006 11.559999 32.685005 11.559999 32.685005L11.559999 32.685005L12.846 33.864006L13.596 34.543007L13.847 33.820007C 15.234 36.410007 13.967 38.833008 13.967 38.833008C 13.741 37.95001 12.83 36.645008 12.83 36.645008L12.83 36.645008L13.188 35.45701L11.273 33.723007C 9.281 39.946007 6.62 41.962006 6.62 41.962006C 6.62 41.962006 9.498 41.442005 11.101999 40.905006C 11.101999 40.905006 11.058 44.185005 9.11 47.175007" stroke="none" fill="#FFFFFF" fill-rule="nonzero" />
	<g transform="matrix(0.9994726 0 0 0.9965123 0 0)">
	</g>
    <path transform="matrix(0.9994726 0 0 0.9965123 0 0)"  d="M22.922 21.54C 23.852001 20.890001 25.43 20.389 26.91 20.503C 27.285 20.531 27.603 20.433 27.198 20.219C 26.091 19.634 23.508 19.834 22.595 20.455C 21.132 21.453 21.38 23.23 21.413 23.273C 21.705 22.765001 22.199 22.045 22.923 21.54L22.923 21.54L22.922 21.54zM36.251 19.472L31.651 19.666C 31.654 20.209 31.581 20.757 31.405998 21.276001C 31.835 23.153002 31.535997 24.172 31.535997 24.172C 30.765997 22.382 30.180998 21.885 30.180998 21.885C 25.956997 20.008 23.582998 24.251 23.836998 26.988C 24.043999 29.238 24.860998 32.223 25.496998 36.907C 26.032997 40.848 24.037998 42.552002 21.741997 42.943C 21.691998 42.95 21.641996 42.96 21.591997 42.97C 21.576998 42.97 21.566998 42.97 21.553997 42.972C 21.539997 42.967 21.523996 42.967 21.509996 42.967C 21.462996 42.967 21.419996 42.961 21.372997 42.961C 19.586998 42.712997 15.586998 41.987 11.455997 41.886997C 13.885998 40.467 15.786997 38.011997 16.847998 36.271996C 16.907997 36.753994 16.958998 37.341995 16.958998 37.989994C 16.958998 38.312996 16.948997 38.652992 16.914997 38.999992L16.914997 38.999992L16.874996 39.47399L17.349997 39.513992C 19.251997 39.678993 20.599997 39.316994 21.481997 38.407993C 22.558996 37.28599 22.889996 35.414993 22.524996 32.513992C 22.368996 31.241993 21.905996 29.267992 21.500996 27.527992C 21.300995 26.657991 21.110996 25.830992 20.992996 25.260992C 20.309996 21.831993 21.126997 19.750992 21.932997 18.610992C 22.561996 17.715992 23.432997 17.060993 24.385998 16.745993L24.385998 16.745993L24.435997 16.735992L26.006996 11.916992L26.499996 11.916992L25.444996 16.547993C 25.688995 16.505993 25.936996 16.466993 26.187996 16.427992L26.187996 16.427992L27.543995 12.157991L28.031996 12.157991L27.144997 16.293991L26.187996 16.427992L27.543995 12.157991L28.031996 12.157991L27.144997 16.293991C 27.418997 16.403992 27.714996 16.71899 27.973997 17.15999L27.973997 17.15999L32.399998 15.797991L32.565 16.27499L28.332998 17.91699C 28.366999 18.00299 28.399998 18.09399 28.425999 18.18499L28.425999 18.18499L33.053997 17.61099L33.129997 18.10699L28.639997 19.00399L28.425999 18.18499L33.053997 17.61099L33.129997 18.10699L28.639997 19.00399L33.309998 19.15599L33.307 19.65699" stroke="none" fill="#FFFFFF" fill-rule="nonzero" />
</g>
</svg>